<svg width="1728" height="437" viewBox="0 0 1728 437" fill="none" xmlns="http://www.w3.org/2000/svg">
<g clip-path="url(#clip0_3_46)">
<path d="M1391.23 235.016C1507.41 274.937 1675 370.59 1675 370.59V437.403L-245 488V16.4126C-201.176 16.4126 -155.385 33.1134 -97.2578 35.2242C8.00195 39.0466 65.1842 -6.71288 170.241 0.844395C357.5 14.315 426.183 149.809 606.308 202.583C900.648 288.82 1101.19 135.359 1391.23 235.016Z" fill="#171F33"/>
<path d="M471 324.016C381.745 363.937 253 459.59 253 459.59V526.403L1728 577V105.413C1694.33 105.413 1659.16 122.113 1614.5 124.224C1533.64 128.047 1489.71 82.2871 1409 89.8444C1265.14 103.315 1212.38 238.809 1074 291.583C847.879 377.82 693.819 224.359 471 324.016Z" fill="#99C2C2"/>
</g>
<defs>
<clipPath id="clip0_3_46">
<rect width="1728" height="437" fill="white"/>
</clipPath>
</defs>
</svg>
